<svg width="30" height="30" viewBox="0 0 30 30" fill="none" xmlns="http://www.w3.org/2000/svg">
<path fill-rule="evenodd" clip-rule="evenodd" d="M15.0026 27.3516C21.7462 27.3516 27.2131 21.8847 27.2131 15.1411C27.2131 8.39738 21.7462 2.93055 15.0026 2.93055C8.25889 2.93055 2.79206 8.39738 2.79206 15.1411C2.79206 21.8847 8.25889 27.3516 15.0026 27.3516ZM15.0026 29.5064C22.9362 29.5064 29.3679 23.0747 29.3679 15.1411C29.3679 7.20732 22.9362 0.775757 15.0026 0.775757C7.06883 0.775757 0.637268 7.20732 0.637268 15.1411C0.637268 23.0747 7.06883 29.5064 15.0026 29.5064Z" fill="#9E9E9E"/>
<path d="M18.5578 18.6963C18.1371 19.1171 17.4549 19.1171 17.0341 18.6963L15.0026 16.6648L12.971 18.6963C12.5503 19.1171 11.8681 19.1171 11.4473 18.6963C11.0266 18.2756 11.0266 17.5934 11.4473 17.1726L13.4788 15.1411L11.4473 13.1095C11.0266 12.6888 11.0266 12.0066 11.4473 11.5858C11.8681 11.1651 12.5503 11.1651 12.971 11.5858L15.0026 13.6173L17.0341 11.5858C17.4549 11.1651 18.1371 11.1651 18.5578 11.5858C18.9786 12.0066 18.9786 12.6888 18.5578 13.1095L16.5263 15.1411L18.5578 17.1726C18.9786 17.5934 18.9786 18.2756 18.5578 18.6963Z" fill="#9E9E9E"/>
</svg>
