<svg width="21" height="20" viewBox="0 0 21 20" fill="none" xmlns="http://www.w3.org/2000/svg">
<path fill-rule="evenodd" clip-rule="evenodd" d="M9.37449 0C14.1776 0 18.0712 3.87214 18.0712 8.64866C18.0712 10.745 17.3212 12.667 16.0736 14.1641L20.5501 18.6159C20.8685 18.9326 20.8685 19.4459 20.5501 19.7625C20.2317 20.0792 19.7155 20.0792 19.3971 19.7625L14.9206 15.3107C13.4152 16.5515 11.4825 17.2973 9.37449 17.2973C4.57143 17.2973 0.67778 13.4252 0.67778 8.64866C0.67778 3.87214 4.57143 0 9.37449 0ZM9.37449 15.6757C13.277 15.6757 16.4406 12.5296 16.4406 8.64866C16.4406 4.76774 13.277 1.62162 9.37449 1.62162C5.472 1.62162 2.30841 4.76774 2.30841 8.64866C2.30841 12.5296 5.472 15.6757 9.37449 15.6757Z" fill="#6F686B"/>
</svg>
