<svg width="19" height="20" viewBox="0 0 19 20" fill="none" xmlns="http://www.w3.org/2000/svg">
<path fill-rule="evenodd" clip-rule="evenodd" d="M10.9884 2.28168C9.94388 1.27203 8.31709 1.27203 7.27256 2.28168L2.49288 6.90176C1.84698 7.52609 1.48061 8.39765 1.48061 9.30978V16.697C1.48061 17.6793 2.25398 18.4756 3.20799 18.4756H5.18214C5.31842 18.4756 5.42891 18.3617 5.42891 18.2215V14.1563C5.42891 12.6127 6.64421 11.3615 8.14336 11.3615H10.1175C11.6167 11.3615 12.832 12.6127 12.832 14.1563V18.2215C12.832 18.3617 12.9424 18.4756 13.0787 18.4756H15.0529C16.0069 18.4756 16.7803 17.6793 16.7803 16.697V9.30978C16.7803 8.39765 16.4139 7.52609 15.768 6.90176L10.9884 2.28168ZM6.25911 1.17028C7.8734 -0.390099 10.3875 -0.390089 12.0017 1.17028L16.7814 5.79036C17.7254 6.70284 18.2609 7.9766 18.2609 9.30978V16.697C18.2609 18.5212 16.8246 20 15.0529 20H13.0787C12.1247 20 11.3514 19.2037 11.3514 18.2215V14.1563C11.3514 13.4546 10.799 12.8859 10.1175 12.8859H8.14336C7.46188 12.8859 6.90952 13.4546 6.90952 14.1563V18.2215C6.90952 19.2037 6.13615 20 5.18214 20H3.20799C1.43626 20 0 18.5212 0 16.697V9.30978C0 7.9766 0.535468 6.70284 1.47947 5.79036L6.25911 1.17028Z" fill="#6F686B"/>
</svg>
