<?xml version="1.0" encoding="UTF-8"?>
<svg xmlns="http://www.w3.org/2000/svg" xmlns:xlink="http://www.w3.org/1999/xlink" width="50px" height="50px" viewBox="0 0 50 50" version="1.1">
<g id="surface1">
<rect x="0" y="0" width="50" height="50" style="fill:rgb(6.666667%,6.666667%,6.666667%);fill-opacity:1;stroke:none;"/>
<path style="fill-rule:nonzero;fill:rgb(6.666667%,6.666667%,6.666667%);fill-opacity:1;stroke-width:1.2;stroke-linecap:butt;stroke-linejoin:miter;stroke:rgb(20.784314%,20.784314%,20.784314%);stroke-opacity:1;stroke-miterlimit:4;" d="M 13.551027 12.198062 L 8.999898 13.521604 L 13.551027 30.317437 L 19.781739 31.997021 L 29.000098 8.002973 L 19.773999 10.518478 L 16.546413 21.199699 Z M 13.551027 12.198062 " transform="matrix(0.504682,0,0,0.504682,-9.588966,-10.093648)"/>
<path style="fill-rule:nonzero;fill:rgb(6.666667%,6.666667%,6.666667%);fill-opacity:1;stroke-width:1.2;stroke-linecap:butt;stroke-linejoin:miter;stroke:rgb(20.784314%,20.784314%,20.784314%);stroke-opacity:1;stroke-miterlimit:4;" d="M 13.551027 12.198062 L 8.999898 13.521604 L 13.551027 30.317437 L 19.781739 31.997021 L 29.000098 8.002973 L 19.773999 10.518478 L 16.546413 21.199699 Z M 13.551027 12.198062 " transform="matrix(0.504682,0,0,0.504682,40.411034,-10.093648)"/>
<path style="fill-rule:nonzero;fill:rgb(6.666667%,6.666667%,6.666667%);fill-opacity:1;stroke-width:1.2;stroke-linecap:butt;stroke-linejoin:miter;stroke:rgb(20.784314%,20.784314%,20.784314%);stroke-opacity:1;stroke-miterlimit:4;" d="M 13.551027 12.198062 L 8.999898 13.521604 L 13.551027 30.317437 L 19.781739 31.997021 L 29.000098 8.002973 L 19.773999 10.518478 L 16.546413 21.199699 Z M 13.551027 12.198062 " transform="matrix(0.504682,0,0,0.504682,-9.588966,39.906352)"/>
<path style="fill-rule:nonzero;fill:rgb(6.666667%,6.666667%,6.666667%);fill-opacity:1;stroke-width:1.2;stroke-linecap:butt;stroke-linejoin:miter;stroke:rgb(20.784314%,20.784314%,20.784314%);stroke-opacity:1;stroke-miterlimit:4;" d="M 13.551027 12.198062 L 8.999898 13.521604 L 13.551027 30.317437 L 19.781739 31.997021 L 29.000098 8.002973 L 19.773999 10.518478 L 16.546413 21.199699 Z M 13.551027 12.198062 " transform="matrix(0.504682,0,0,0.504682,40.411034,39.906352)"/>
<path style="fill-rule:nonzero;fill:rgb(6.666667%,6.666667%,6.666667%);fill-opacity:1;stroke-width:1.2;stroke-linecap:butt;stroke-linejoin:miter;stroke:rgb(20.784314%,20.784314%,20.784314%);stroke-opacity:1;stroke-miterlimit:4;" d="M 13.550498 12.198468 L 8.999061 13.519049 L 13.550498 30.321161 L 19.779655 31.998881 L 28.998807 8.000016 L 19.779655 10.520748 L 16.544646 21.197523 Z M 13.550498 12.198468 " transform="matrix(0.940637,0,0,0.940637,9.253901,5.209264)"/>
</g>
</svg>
