<svg width="17" height="29" viewBox="0 0 17 29" fill="none" xmlns="http://www.w3.org/2000/svg">
<path d="M2.06347 28.73C1.65599 28.7323 1.25703 28.6133 0.917455 28.388C0.577885 28.1628 0.313089 27.8415 0.15683 27.4652C0.000570569 27.0888 -0.0400735 26.6745 0.0400795 26.2749C0.120232 25.8754 0.317551 25.5088 0.606878 25.2218L11.48 14.3692L0.606878 3.51653C0.220565 3.13022 0.00353691 2.60626 0.00353691 2.05994C0.00353691 1.78942 0.0568183 1.52156 0.16034 1.27163C0.263861 1.02171 0.415595 0.794624 0.606878 0.603341C0.798161 0.412059 1.02525 0.260325 1.27517 0.156804C1.52509 0.0532824 1.79296 0 2.06347 0C2.6098 0 3.13375 0.217028 3.52007 0.603341L15.8293 12.9126C16.2114 13.297 16.4259 13.8169 16.4259 14.3589C16.4259 14.9009 16.2114 15.4209 15.8293 15.8053L3.52007 28.1145C3.33006 28.3084 3.10348 28.4626 2.85345 28.5682C2.60342 28.6739 2.33491 28.7288 2.06347 28.73Z" fill="#9E9E9E"/>
</svg>
