<svg width="20" height="20" viewBox="0 0 20 20" fill="none" xmlns="http://www.w3.org/2000/svg">
<path fill-rule="evenodd" clip-rule="evenodd" d="M15.4358 2.53792C12.4514 -0.845974 7.06489 -0.845974 4.08045 2.53792C2.91873 3.85515 2.28017 5.53279 2.28017 7.26766V10.7908C2.28017 11.545 1.90149 12.2519 1.26568 12.6845C-0.685127 14.0116 0.281107 16.9907 2.66238 16.9907H6.18499C6.72027 21.0031 12.7959 21.0031 13.3313 16.9907H16.854C19.2352 16.9907 20.2015 14.0116 18.2507 12.6845C17.6149 12.2519 17.2362 11.545 17.2362 10.7908V7.26766C17.2362 5.53279 16.5976 3.85515 15.4358 2.53792ZM14.1742 3.58898C11.8529 0.957051 7.66338 0.957051 5.34217 3.58898C4.4386 4.61348 3.94194 5.91831 3.94194 7.26766V10.7908C3.94194 12.0721 3.2987 13.2728 2.21865 14.0075C1.59887 14.4292 1.90585 15.3757 2.66238 15.3757H16.854C17.6104 15.3757 17.9174 14.4292 17.2977 14.0075C16.2176 13.2728 15.5744 12.0721 15.5744 10.7908V7.26766C15.5744 5.91831 15.0777 4.61348 14.1742 3.58898ZM11.642 16.9907C11.179 18.8497 8.33707 18.8497 7.87421 16.9907H11.642Z" fill="#6F686B"/>
</svg>
