<svg width="28" height="29" viewBox="0 0 28 29" fill="none" xmlns="http://www.w3.org/2000/svg">
<path d="M20.8249 0.122301C20.3459 0.369322 20.024 0.810963 19.9342 1.34243C19.9042 1.48465 19.9491 1.96372 20.024 2.40536C20.1063 2.85449 20.1587 3.21379 20.1513 3.21379C20.1438 3.21379 19.7845 3.04911 19.3578 2.847C14.6944 0.661253 9.23747 1.305 5.10551 4.52374C4.31205 5.13755 3.13684 6.38013 2.50057 7.26342C1.89425 8.10927 1.05588 9.74859 0.734007 10.7142C-0.531033 14.5093 -0.149275 18.559 1.78946 21.9499C3.31649 24.6222 5.80914 26.7555 8.73595 27.8858C10.1282 28.4173 11.4232 28.6643 13.1224 28.7167C14.7393 28.7691 15.66 28.6718 17.0074 28.3275C19.3728 27.7211 21.2516 26.6657 23.0257 24.959C24.6575 23.3871 25.7878 21.6205 26.469 19.562C26.7684 18.6787 27.0753 17.3388 27.0753 16.9496C27.0753 16.3283 26.5663 15.6022 25.9899 15.4151C25.5333 15.2654 24.8821 15.3477 24.5153 15.6097C24.0886 15.9091 23.894 16.2759 23.7518 17.0694C23.0332 21.0067 19.9267 24.2629 15.9968 25.206C13.2122 25.8797 10.2555 25.3483 7.85267 23.7464C7.02178 23.1924 5.80914 22.0247 5.21779 21.2013C4.64141 20.3929 3.94526 18.9707 3.68327 18.0724C2.49309 13.9404 3.96023 9.50905 7.38108 6.93406C9.11771 5.62411 11.004 4.96539 13.2347 4.88305C15.0312 4.81568 16.3037 5.07767 17.8981 5.81873L18.6317 6.16306L17.449 6.37265C16.4684 6.53733 16.2139 6.61218 15.9669 6.78435C15.0911 7.40564 15.0986 8.80542 15.9819 9.44917C16.4909 9.82344 16.7603 9.80847 20.0764 9.23958C21.6783 8.9701 23.108 8.69314 23.2427 8.62577C23.602 8.4536 23.9838 7.97453 24.0811 7.55535C24.156 7.24845 24.1335 7.00143 23.894 5.60165C23.2802 1.97121 23.1005 1.02804 23.0032 0.83342C22.861 0.556458 22.4418 0.167213 22.1873 0.0773888C21.8729 -0.0423775 21.0869 -0.0199223 20.8249 0.122301Z" fill="#9E9E9E"/>
</svg>
