<svg width="17" height="20" viewBox="0 0 17 20" fill="none" xmlns="http://www.w3.org/2000/svg">
<path fill-rule="evenodd" clip-rule="evenodd" d="M8.80555 0C11.5823 0 13.8333 2.23858 13.8333 5C13.8333 6.36273 13.2851 7.59812 12.3961 8.5H13.6962C15.438 8.5 16.85 9.9042 16.85 11.6364V12C16.85 16.4183 13.2484 20 8.80555 20C4.36273 20 0.761108 16.4183 0.761108 12V11.6364C0.761108 9.9042 2.17311 8.5 3.91489 8.5H5.215C4.32596 7.59812 3.77777 6.36273 3.77777 5C3.77777 2.23858 6.02879 0 8.80555 0ZM8.80555 8.5C10.7493 8.5 12.325 6.933 12.325 5C12.325 3.067 10.7493 1.5 8.80555 1.5C6.86181 1.5 5.28611 3.067 5.28611 5C5.28611 6.933 6.86181 8.5 8.80555 8.5ZM13.6962 10H3.91489C3.00614 10 2.26944 10.7326 2.26944 11.6364V12C2.26944 15.5899 5.19576 18.5 8.80555 18.5C12.4154 18.5 15.3417 15.5899 15.3417 12V11.6364C15.3417 10.7326 14.605 10 13.6962 10Z" fill="#6F686B"/>
</svg>
